<svg width="155" height="34" viewBox="0 0 155 34" fill="none" xmlns="http://www.w3.org/2000/svg">
<g clip-path="url(#clip0_8134_67745)">
<path fill-rule="evenodd" clip-rule="evenodd" d="M78.1055 0.0412598H85.6047L95.1047 11.3952L85.6364 22.8634H78.1348L88.0973 11.4444L78.1055 0.0412598Z" fill="#61BFBB"/>
<path fill-rule="evenodd" clip-rule="evenodd" d="M105.087 0.0366211H97.5865L88.0977 11.4445L97.6976 22.9254H105.198L95.1177 11.4477L105.087 0.0366211Z" fill="white"/>
<path fill-rule="evenodd" clip-rule="evenodd" d="M55.272 33.0996C54.7389 33.0996 54.2415 33.0123 53.7814 32.8394C53.3284 32.6593 52.9317 32.4094 52.5914 32.0897C52.2582 31.7628 51.998 31.3797 51.8116 30.9394C51.6251 30.4991 51.5315 30.0191 51.5315 29.4995C51.5315 28.9791 51.6251 28.4991 51.8116 28.0596C51.998 27.6193 52.2614 27.2393 52.6017 26.9196C52.9421 26.5928 53.3387 26.3429 53.7917 26.1691C54.2447 25.9891 54.7413 25.8994 55.2815 25.8994C55.8551 25.8994 56.3787 25.9994 56.8515 26.1993C57.3243 26.3921 57.725 26.6824 58.0518 27.0688L57.2117 27.8589C56.9578 27.586 56.6746 27.3821 56.362 27.2488C56.0487 27.1084 55.7083 27.0386 55.3418 27.0386C54.9753 27.0386 54.6382 27.0989 54.3319 27.2187C54.0321 27.3393 53.7687 27.5091 53.5418 27.7288C53.322 27.9486 53.1491 28.2088 53.0214 28.5086C52.9016 28.8085 52.8413 29.1385 52.8413 29.4987C52.8413 29.8589 52.9016 30.1881 53.0214 30.4888C53.1483 30.7886 53.3213 31.0488 53.5418 31.2686C53.7687 31.4883 54.0321 31.6589 54.3319 31.7787C54.6382 31.8993 54.9753 31.9588 55.3418 31.9588C55.7083 31.9588 56.0487 31.8921 56.362 31.7581C56.6746 31.6184 56.9586 31.4082 57.2117 31.1282L58.0518 31.9278C57.725 32.3078 57.3251 32.5982 56.8515 32.7981C56.3787 32.998 55.8511 33.098 55.272 33.098V33.0996ZM96.4412 32.8394C96.9014 33.0123 97.398 33.0996 97.9311 33.0996C98.511 33.0996 99.0378 32.9996 99.5114 32.7997C99.9842 32.5998 100.384 32.3102 100.712 31.9294L99.8716 31.1298C99.6185 31.4098 99.3345 31.6192 99.0219 31.7597C98.7093 31.8929 98.369 31.9604 98.0017 31.9604C97.6344 31.9604 97.2988 31.9001 96.9918 31.7803C96.6919 31.6605 96.4286 31.4907 96.2017 31.2702C95.9819 31.0504 95.8082 30.7902 95.6812 30.4903C95.5615 30.1905 95.5012 29.8604 95.5012 29.5003C95.5012 29.1401 95.5615 28.8101 95.6812 28.5102C95.8082 28.2103 95.9811 27.9501 96.2017 27.7304C96.4286 27.5106 96.6919 27.3401 96.9918 27.2203C97.2988 27.1005 97.6344 27.0402 98.0017 27.0402C98.369 27.0402 98.7085 27.11 99.0219 27.2504C99.3345 27.3837 99.6193 27.5868 99.8716 27.8605L100.712 27.0704C100.384 26.684 99.9842 26.3936 99.5114 26.2009C99.0386 26.0002 98.5142 25.901 97.9414 25.901C97.4012 25.901 96.9045 25.9906 96.4516 26.1707C95.9978 26.3445 95.6019 26.5944 95.2616 26.9212C94.9213 27.2409 94.6579 27.6209 94.4714 28.0612C94.285 28.5015 94.1914 28.9815 94.1914 29.5011C94.1914 30.0215 94.285 30.5014 94.4714 30.9409C94.6579 31.3812 94.9181 31.7644 95.2513 32.0913C95.5908 32.411 95.9875 32.6609 96.4412 32.8409V32.8394ZM143.172 32.8394C143.633 33.0123 144.129 33.0996 144.662 33.0996C145.242 33.0996 145.769 32.9996 146.243 32.7997C146.716 32.5998 147.116 32.3102 147.443 31.9294L146.603 31.1298C146.35 31.4098 146.066 31.6192 145.753 31.7597C145.441 31.8929 145.1 31.9604 144.733 31.9604C144.367 31.9604 144.03 31.9001 143.723 31.7803C143.423 31.6605 143.161 31.4907 142.933 31.2702C142.713 31.0504 142.54 30.7902 142.412 30.4903C142.293 30.1905 142.232 29.8604 142.232 29.5003C142.232 29.1401 142.293 28.8101 142.412 28.5102C142.539 28.2103 142.712 27.9501 142.933 27.7304C143.16 27.5106 143.422 27.3401 143.723 27.2203C144.03 27.1005 144.367 27.0402 144.733 27.0402C145.1 27.0402 145.44 27.11 145.753 27.2504C146.067 27.3837 146.35 27.5868 146.603 27.8605L147.443 27.0704C147.117 26.684 146.717 26.3936 146.243 26.2009C145.77 26.0002 145.246 25.901 144.673 25.901C144.132 25.901 143.637 25.9906 143.182 26.1707C142.729 26.3445 142.332 26.5944 141.992 26.9212C141.652 27.2409 141.389 27.6209 141.202 28.0612C141.015 28.5015 140.922 28.9815 140.922 29.5011C140.922 30.0215 141.015 30.5014 141.202 30.9409C141.388 31.3812 141.648 31.7644 141.982 32.0913C142.322 32.411 142.719 32.6609 143.172 32.8409L143.172 32.8394ZM150.988 29.9794V31.9096H154.938V32.9996H149.688V25.9994H154.798V27.0894H150.988V28.9093H154.369V29.9794H150.988ZM132.328 32.9996V25.9994H133.398L137.258 30.7387V25.9994H138.548V32.9996H137.478L133.618 28.2603V32.9996H132.328ZM125.929 29.9794V31.9096H129.879V32.9996H124.629V25.9994H129.739V27.0894H125.929V28.9093H129.309V29.9794H125.929ZM117.642 32.9996V25.9994H118.942V31.8993H122.602V32.9988H117.642V32.9996ZM110.656 25.9994V32.9996H115.616V31.9001H111.956V26.0002H110.656V25.9994ZM104.257 31.9096V29.9794H107.637V28.9093H104.257V27.0894H108.067V25.9994H102.957V32.9996H108.207V31.9096H104.257ZM86.1614 32.9996L88.758 29.4265L86.3019 25.9994H87.7719L89.564 28.4856L91.3323 25.9994H92.742L90.293 29.3789L92.9221 32.9996H91.4219L89.5188 30.3356L87.6418 32.9996H86.1614ZM80.6907 29.9794V31.9096H84.6406V32.9996H79.3913V25.9994H84.501V27.0894H80.6915V28.9093H84.071V29.9794H80.6915H80.6907ZM68.641 32.9996V25.9994H69.9405V31.8993H73.6008V32.9988H68.641V32.9996ZM62.3103 25.9994L59.1609 32.9996H60.5008L61.1941 31.3797H64.6951L65.3908 32.9996H66.7513L63.5916 25.9994H62.3111H62.3103ZM62.941 27.2964L64.2563 30.3594H61.6297L62.9402 27.2964H62.941ZM47.8386 25.9994V32.9996H49.1389V25.9994H47.8386ZM42.2434 32.9996V27.0997H39.9237V25.9994H45.8633V27.0997H43.5436V32.9996H42.2434ZM35.0393 30.5498V32.9996H36.3395V30.5332L39.0796 25.9994H37.7992L35.731 29.4051L33.6795 25.9994H32.2896L35.0393 30.5498ZM27.0656 32.9996V25.9994H28.3659V31.8993H32.0254V32.9988H27.0656V32.9996ZM20.7349 25.9994L17.5855 32.9996H18.9254L19.6187 31.3797H23.1197L23.8154 32.9996H25.1751L22.0154 25.9994H20.7349ZM21.3656 27.2964L22.681 30.3594H20.0543L21.3656 27.2964ZM9.48015 32.9996V25.9994H10.5503L14.4106 30.7387V25.9994H15.7005V32.9996H14.6304L10.7701 28.2603V32.9996H9.48015ZM3.14947 25.9994L0 32.9996H1.33991L2.03327 31.3797H5.53418L6.22992 32.9996H7.59046L4.43068 25.9994H3.15026H3.14947ZM3.78016 27.2964L5.09548 30.3594H2.4688L3.77937 27.2964H3.78016Z" fill="#61BFBB"/>
<path fill-rule="evenodd" clip-rule="evenodd" d="M39.0846 5.82222C39.0584 5.81984 39.0331 5.81667 39.0069 5.81429C38.9807 5.81667 38.9545 5.81905 38.9283 5.82222V5.80794C38.7792 5.79683 38.6285 5.79128 38.4753 5.79128C37.8042 5.79128 37.1735 5.90393 36.5833 6.12923C35.9923 6.35454 35.4734 6.66314 35.0268 7.05583C34.5786 7.44852 34.2271 7.90785 33.9717 8.4362C33.717 8.96058 33.5869 9.51987 33.5869 10.1085V22.9983H27.0508V10.1085C27.0508 8.71862 27.3491 7.40965 27.948 6.1808C28.5454 4.95116 29.3633 3.88018 30.4033 2.95914C31.4394 2.03889 32.6548 1.31538 34.0423 0.790999C35.4322 0.262649 36.9093 -0.000732422 38.4753 -0.000732422C38.6531 -0.000732422 38.83 0.00244085 39.0069 0.00958071C39.183 0.00244085 39.3599 -0.000732422 39.5384 -0.000732422C41.1052 -0.000732422 42.5816 0.262649 43.9715 0.790999C45.359 1.31459 46.5743 2.03889 47.6104 2.95914C48.6504 3.88018 49.4691 4.95116 50.0649 6.1808C50.6647 7.40965 50.9622 8.71862 50.9622 10.1085V22.9983H44.426V10.1085C44.426 9.51987 44.2967 8.96058 44.0413 8.4362C43.7858 7.90785 43.4344 7.44852 42.9862 7.05583C42.5395 6.66314 42.0199 6.35454 41.4297 6.12923C40.8386 5.90472 40.208 5.79128 39.5376 5.79128C39.3845 5.79128 39.233 5.79683 39.0838 5.80794V5.82222H39.0846Z" fill="white"/>
<path fill-rule="evenodd" clip-rule="evenodd" d="M130.416 14.3741C130.416 14.3772 130.419 14.3828 130.42 14.3891C130.422 14.3947 130.424 14.4002 130.424 14.4042C130.586 14.9667 130.801 15.5149 131.061 16.0472C131.394 16.7429 131.816 17.4014 132.297 18.0233C132.785 18.6302 133.333 19.2077 133.955 19.7329C135.191 20.7841 136.664 21.6202 138.285 22.1906C139.898 22.7602 141.637 23.0569 143.391 23.0569C145.138 23.0569 146.877 22.7602 148.491 22.1906C150.112 21.621 151.585 20.7841 152.821 19.7329C153.442 19.2077 153.99 18.6302 154.471 18.0233H143.813C143.672 18.0305 143.532 18.0305 143.391 18.0305C143.243 18.0305 143.102 18.0305 142.954 18.0233C141.289 17.9273 139.713 17.276 138.521 16.1804C137.951 15.6624 137.499 15.0627 137.159 14.4042C137.159 14.3971 137.151 14.382 137.144 14.3749H147.677C148.176 12.5859 148.176 10.4717 147.677 8.6828H137.144C137.151 8.67566 137.159 8.66059 137.159 8.64551C137.499 7.9942 137.951 7.39525 138.521 6.87642C139.713 5.78084 141.289 5.12953 142.954 5.03354C143.102 5.0264 143.243 5.0264 143.391 5.0264C143.532 5.0264 143.672 5.0264 143.813 5.03354H154.471C153.99 4.41951 153.442 3.84912 152.821 3.32394C151.585 2.27279 150.112 1.43664 148.491 0.866242C146.877 0.29664 145.138 0.000732422 143.391 0.000732422C141.637 0.000732422 139.898 0.29664 138.285 0.866242C136.664 1.43584 135.191 2.27279 133.955 3.32394C133.333 3.84912 132.785 4.41951 132.297 5.03354C131.816 5.6555 131.394 6.31395 131.061 7.00969C130.802 7.5428 130.587 8.09099 130.424 8.64551C130.424 8.65107 130.423 8.65662 130.422 8.66138L130.42 8.66931C130.419 8.67169 130.419 8.67407 130.418 8.67645C130.417 8.67883 130.417 8.68042 130.417 8.68201C129.918 10.4709 129.918 12.5851 130.417 14.3741H130.416Z" fill="white"/>
<path fill-rule="evenodd" clip-rule="evenodd" d="M105.417 8.68207C105.417 8.6789 105.418 8.67493 105.42 8.66937C105.423 8.66224 105.424 8.65351 105.424 8.64478C105.587 8.09025 105.802 7.54207 106.061 7.00896C106.395 6.31322 106.817 5.65477 107.297 5.03281C107.786 4.41878 108.333 3.84838 108.955 3.32321C110.191 2.27206 111.665 1.4359 113.285 0.86551C114.899 0.295907 116.638 0 118.392 0C120.139 0 121.878 0.295907 123.492 0.86551C125.113 1.43511 126.586 2.27206 127.822 3.32321C128.444 3.84838 128.991 4.41878 129.472 5.03281H118.815C118.674 5.02567 118.534 5.02567 118.393 5.02567C118.245 5.02567 118.104 5.02567 117.956 5.03281C116.29 5.1288 114.715 5.78011 113.523 6.87568C112.954 7.39372 112.502 7.99347 112.161 8.64478C112.161 8.65986 112.153 8.67493 112.146 8.68207H122.678C123.177 10.4686 123.177 12.5876 122.678 14.3741H112.146C112.153 14.3813 112.161 14.3963 112.161 14.4035C112.502 15.0619 112.954 15.6617 113.523 16.1797C114.716 17.2753 116.291 17.9266 117.956 18.0226C118.104 18.0297 118.244 18.0297 118.393 18.0297C118.534 18.0297 118.674 18.0297 118.815 18.0226H129.472C128.991 18.6295 128.444 19.207 127.822 19.7322C126.586 20.7833 125.114 21.6195 123.492 22.1899C121.879 22.7595 120.139 23.0562 118.392 23.0562C116.638 23.0562 114.899 22.7595 113.285 22.1899C111.665 21.6203 110.191 20.7833 108.955 19.7322C108.333 19.207 107.786 18.6295 107.297 18.0226C106.817 17.4006 106.394 16.7422 106.061 16.0464C105.803 15.5133 105.588 14.9659 105.424 14.4035C105.424 14.3995 105.424 14.3947 105.421 14.3884L105.42 14.3852C105.42 14.3821 105.419 14.3797 105.417 14.3773C105.417 14.3765 105.417 14.3749 105.417 14.3741C104.918 12.5868 104.918 10.4694 105.417 8.68207Z" fill="white"/>
<path fill-rule="evenodd" clip-rule="evenodd" d="M53.4197 14.3384C53.4197 14.3423 53.4213 14.3471 53.4237 14.3534C53.4253 14.359 53.4277 14.3645 53.4277 14.3685C53.5895 14.9294 53.8037 15.476 54.0623 16.0075C54.3947 16.7017 54.816 17.3585 55.2959 17.9789C55.7838 18.585 56.3296 19.1601 56.95 19.6845C58.1836 20.7333 59.652 21.5679 61.2688 22.1359C62.8785 22.7047 64.6134 22.9998 66.3635 22.9998C68.1064 22.9998 69.8414 22.7039 71.4511 22.1359C73.0686 21.5671 74.5379 20.7333 75.7707 19.6845C76.391 19.1601 76.9376 18.585 77.4176 17.9789H66.7848C66.6443 17.9868 66.5047 17.9868 66.3643 17.9868C66.2167 17.9868 66.0763 17.9868 65.9288 17.9789C64.2676 17.8829 62.6944 17.2332 61.506 16.1408C60.9372 15.6235 60.4866 15.0262 60.1471 14.3685C60.1471 14.3614 60.1391 14.3463 60.132 14.3392H70.6387C71.1361 12.5574 71.1361 10.4432 70.6387 8.66138H60.132C60.1391 8.65424 60.1471 8.63917 60.1471 8.62409C60.4866 7.97437 60.9372 7.37621 61.506 6.85976C62.6944 5.76736 64.2676 5.11763 65.9288 5.02164C66.0763 5.01371 66.2167 5.01371 66.3643 5.01371C66.5047 5.01371 66.6451 5.01371 66.7848 5.02164H77.4176C76.9376 4.4092 76.391 3.84039 75.7707 3.31601C74.5379 2.26724 73.0686 1.43346 71.4511 0.864655C69.8414 0.295847 68.1064 0.000732422 66.3635 0.000732422C64.6134 0.000732422 62.8785 0.295847 61.2688 0.864655C59.652 1.43346 58.1828 2.26724 56.95 3.31601C56.3296 3.84039 55.7838 4.4092 55.2959 5.02164C54.816 5.64201 54.3947 6.29888 54.0623 6.99303C53.8037 7.52456 53.5895 8.07115 53.4277 8.62489C53.4277 8.63361 53.4253 8.64234 53.4229 8.64948C53.4213 8.65503 53.4205 8.659 53.4205 8.66217C52.9223 10.4432 52.9223 12.559 53.4205 14.3399L53.4197 14.3384Z" fill="white"/>
<path fill-rule="evenodd" clip-rule="evenodd" d="M18.977 20.9468H18.9841V22.9991H25.0506V10.9216H25.0435C24.9951 9.56265 24.6754 8.22115 24.1002 6.96216C23.4695 5.59368 22.5469 4.34976 21.3894 3.30337C20.232 2.2562 18.8524 1.42559 17.334 0.85837C15.8164 0.291941 14.1933 0 12.5503 0C10.9073 0 9.285 0.291941 7.76659 0.85837C6.24818 1.42559 4.87574 2.2562 3.71115 3.30337C2.5537 4.35055 1.63107 5.59448 1.00752 6.96216C0.376835 8.33063 0.0507812 9.79668 0.0507812 11.2778C0.0507812 14.2686 1.36769 17.1365 3.71115 19.2554C6.06096 21.3664 9.23661 22.558 12.5503 22.558C13.0842 22.558 13.6181 22.5215 14.1449 22.462V17.3649C13.6316 17.4974 13.0913 17.5633 12.5503 17.5633C10.8375 17.5633 9.2017 16.9016 7.99506 15.7251C6.78208 14.5407 6.103 12.9446 6.103 11.2778C6.103 9.61104 6.78208 8.01171 7.99506 6.83284C9.2017 5.65397 10.8375 4.99076 12.5503 4.99076C14.2623 4.99076 15.8989 5.65318 17.1119 6.83284C18.2344 7.92762 18.9 9.38495 18.9904 10.9216H18.9833V11.6792C18.9833 11.7157 18.9833 11.7522 18.9762 11.7895V20.9468H18.977Z" fill="white"/>
</g>
<defs>
<clipPath id="clip0_8134_67745">
<rect width="154.939" height="33.0996" fill="white"/>
</clipPath>
</defs>
</svg>
